# xmcd
#
# Track frame offsets: 
#        300
#        13044
#        26122
#        36862
#        49490
#        68649
#        85450
#        98784
#        112283
#        129722
#        144310
#        156246
#        167528
#
# Disc length: 2411 seconds
#
# Revision: 0
# Processed by: cddbd v1.5.2PL0 Copyright (c) Steve Scherf et al.
# Submitted via: ExactAudioCopy v1.0b1
#
DISCID=b809670d
DTITLE=Candye Kane - Guitar'd And Feathered
DYEAR=2007
DGENRE=Blues
TTITLE0=My Country Man
TTITLE1=Back With My Old Friends
TTITLE2=When I Put The Blues On You
TTITLE3=I'm Not Gonna Cry Today
TTITLE4=I Done Got Over It
TTITLE5=Goodbye My Heart
TTITLE6=I'm My Own Worst Enemy
TTITLE7=Fine Brown Frame
TTITLE8=I'm Lucky
TTITLE9=Jesus And Mohammed
TTITLE10=Club Of The Foolish Hearts
TTITLE11=We're Long Ago And Far Away
TTITLE12=Crazy Little Thing
EXTD=
EXTT0=
EXTT1=
EXTT2=
EXTT3=
EXTT4=
EXTT5=
EXTT6=
EXTT7=
EXTT8=
EXTT9=
EXTT10=
EXTT11=
EXTT12=
PLAYORDER=
